<?xml version="1.0" standalone="no"?>
<!DOCTYPE svg PUBLIC "-//W3C//DTD SVG 20010904//EN"
 "http://www.w3.org/TR/2001/REC-SVG-20010904/DTD/svg10.dtd">
<svg version="1.0" xmlns="http://www.w3.org/2000/svg"
 width="229.000000pt" height="118.000000pt" viewBox="0 0 229.000000 118.000000"
 preserveAspectRatio="xMidYMid meet">

<g transform="translate(0.000000,118.000000) scale(0.100000,-0.100000)"
fill="#a6e9d5" stroke="none">
<path d="M839 1033 c-23 -71 -44 -134 -47 -140 -3 -9 6 -13 25 -13 28 0 30 3
72 131 44 133 44 148 4 149 -6 0 -30 -57 -54 -127z"/>
<path d="M225 710 c-104 -60 -191 -113 -192 -117 -4 -12 381 -232 390 -223 11
10 11 430 0 441 -4 4 -93 -41 -198 -101z"/>
<path d="M616 614 c75 -169 87 -173 144 -48 46 98 47 104 22 104 -14 0 -26
-19 -47 -70 -15 -38 -31 -70 -35 -70 -3 0 -20 32 -37 70 -24 53 -36 70 -52 70
-19 0 -19 -1 5 -56z"/>
<path d="M880 584 c-22 -48 -40 -91 -40 -95 0 -18 39 -8 45 11 5 17 15 20 60
20 44 0 53 -3 58 -20 3 -12 14 -20 27 -20 12 0 20 4 18 8 -1 5 -21 48 -43 95
-32 71 -44 87 -62 87 -18 0 -29 -16 -63 -86z m80 10 c14 -35 14 -34 -19 -34
-28 0 -29 1 -18 30 14 37 24 38 37 4z"/>
<path d="M1120 576 l0 -96 85 0 c78 0 85 2 85 20 0 16 -8 19 -62 22 l-63 3 -1
70 c-1 63 -3 70 -23 73 -20 3 -21 0 -21 -92z"/>
<path d="M1370 575 c0 -88 1 -95 20 -95 11 0 20 3 20 8 1 15 2 138 1 160 -1
15 -7 22 -21 22 -19 0 -20 -7 -20 -95z"/>
<path d="M1500 575 c0 -88 2 -95 20 -95 16 0 19 8 22 63 l3 62 50 -62 c35 -44
57 -63 73 -63 21 0 22 3 22 95 0 88 -1 95 -20 95 -15 0 -20 -7 -22 -27 -2 -40
-5 -77 -6 -86 -1 -4 -25 19 -52 52 -31 37 -59 61 -70 61 -19 0 -20 -7 -20 -95z"/>
<path d="M1770 575 c0 -95 0 -95 25 -95 22 0 25 4 25 35 0 47 29 47 67 0 17
-21 37 -35 51 -35 26 0 28 12 7 30 -9 7 -25 25 -35 40 l-19 27 34 41 c41 47
42 52 13 52 -15 0 -33 -14 -51 -40 -38 -54 -67 -54 -67 0 0 36 -2 40 -25 40
-25 0 -25 0 -25 -95z"/>
<path d="M2070 584 c-22 -48 -40 -91 -40 -95 0 -18 39 -8 45 11 5 17 15 20 60
20 44 0 53 -3 58 -20 3 -12 14 -20 27 -20 12 0 20 4 18 8 -1 5 -21 47 -43 95
-33 73 -43 87 -62 87 -19 0 -30 -14 -63 -86z m85 -1 c6 -20 3 -23 -25 -23
l-31 0 17 31 c16 32 27 30 39 -8z"/>
<path d="M565 179 c-26 -77 -45 -142 -43 -144 2 -3 14 -6 26 -7 21 -3 27 9 67
132 25 74 43 141 40 148 -2 6 -13 12 -24 12 -16 0 -27 -24 -66 -141z"/>
</g>
</svg>
